<svg width="51" height="56" viewBox="0 0 51 56" fill="none" xmlns="http://www.w3.org/2000/svg">
<path d="M32.25 19V7.75C32.25 5.95979 31.5388 4.2429 30.273 2.97703C29.0071 1.71116 27.2902 1 25.5 1H7.5C5.70979 1 3.9929 1.71116 2.72703 2.97703C1.46116 4.2429 0.75 5.95979 0.75 7.75V48.25C0.75 50.0402 1.46116 51.7571 2.72703 53.023C3.9929 54.2888 5.70979 55 7.5 55H25.5C27.2902 55 29.0071 54.2888 30.273 53.023C31.5388 51.7571 32.25 50.0402 32.25 48.25V37M41.25 37L50.25 28M50.25 28L41.25 19M50.25 28H12" stroke="black" stroke-width="1.5" stroke-linecap="round" stroke-linejoin="round"/>
</svg>
