<svg width="37" height="54" viewBox="0 0 37 54" fill="none" xmlns="http://www.w3.org/2000/svg">
<path d="M10.875 17H7.0625C5.54579 17 4.09121 17.6321 3.01873 18.7574C1.94626 19.8826 1.34375 21.4087 1.34375 23V47C1.34375 48.5913 1.94626 50.1174 3.01873 51.2426C4.09121 52.3679 5.54579 53 7.0625 53H29.9375C31.4542 53 32.9088 52.3679 33.9813 51.2426C35.0537 50.1174 35.6563 48.5913 35.6563 47V23C35.6563 21.4087 35.0537 19.8826 33.9813 18.7574C32.9088 17.6321 31.4542 17 29.9375 17H26.125M26.125 9L18.5 1M18.5 1L10.875 9M18.5 1V35" stroke="black" stroke-width="1.5" stroke-linecap="round" stroke-linejoin="round"/>
</svg>
