<svg width="42" height="42" viewBox="0 0 42 42" fill="none" xmlns="http://www.w3.org/2000/svg">
<path d="M9.66667 25H6C3.23858 25 1 27.2386 1 30V37C1 39.7614 3.23858 42 6 42H36C38.7614 42 41 39.7614 41 37V30C41 27.2386 38.7614 25 36 25H31.8333C30.2685 25 29 26.2685 29 27.8333C29 29.3981 27.7315 30.6667 26.1667 30.6667H15.3333C13.7685 30.6667 12.5 29.3981 12.5 27.8333C12.5 26.2685 11.2315 25 9.66667 25Z" fill="#D4D4D8"/>
<path d="M9 9H33" stroke="#161616" stroke-width="2" stroke-miterlimit="10" stroke-linecap="round" stroke-linejoin="round"/>
<path d="M9 17H33" stroke="#161616" stroke-width="2" stroke-miterlimit="10" stroke-linecap="round" stroke-linejoin="round"/>
<path d="M1 25H13V31H29V25H41" stroke="#161616" stroke-width="2" stroke-miterlimit="10" stroke-linecap="round" stroke-linejoin="round"/>
<path d="M37 1H5C2.79086 1 1 2.79086 1 5V37C1 39.2091 2.79086 41 5 41H37C39.2091 41 41 39.2091 41 37V5C41 2.79086 39.2091 1 37 1Z" stroke="#161616" stroke-width="2" stroke-miterlimit="10" stroke-linecap="round" stroke-linejoin="round"/>
</svg>
