<svg width="118" height="92" viewBox="0 0 118 92" fill="none" xmlns="http://www.w3.org/2000/svg">
<path d="M116.687 14.9375V77.0625C116.687 80.5932 115.285 83.9793 112.788 86.4759C110.292 88.9724 106.906 90.375 103.375 90.375H14.625C11.0943 90.375 7.70822 88.9724 5.21164 86.4759C2.71506 83.9793 1.3125 80.5932 1.3125 77.0625V14.9375M116.687 14.9375C116.687 11.4068 115.285 8.02072 112.788 5.52414C110.292 3.02756 106.906 1.625 103.375 1.625H14.625C11.0943 1.625 7.70822 3.02756 5.21164 5.52414C2.71506 8.02072 1.3125 11.4068 1.3125 14.9375M116.687 14.9375V16.3752C116.688 18.6481 116.106 20.8832 114.998 22.8676C113.89 24.852 112.292 26.5196 110.357 27.7116L65.9817 55.017C63.8825 56.31 61.4654 56.9946 59 56.9946C56.5345 56.9946 54.1175 56.31 52.0183 55.017L7.64333 27.7175C5.70812 26.5255 4.11031 24.8579 3.00212 22.8735C1.89392 20.8891 1.31225 18.654 1.3125 16.3812V14.9375" stroke="black" stroke-width="1.5" stroke-linecap="round" stroke-linejoin="round"/>
</svg>
