<svg width="38" height="38" viewBox="0 0 38 38" fill="none" xmlns="http://www.w3.org/2000/svg">
<path d="M3.22367 19.5098C3.11441 19.1814 3.11441 18.8265 3.22367 18.4981C5.41976 11.8908 11.6533 7.125 19 7.125C26.3435 7.125 32.5739 11.8861 34.7748 18.4902C34.8856 18.8179 34.8856 19.1726 34.7748 19.5019C32.5803 26.1092 26.3467 30.875 19 30.875C11.6565 30.875 5.42451 26.1139 3.22367 19.5098Z" stroke="black" stroke-width="1.5" stroke-linecap="round" stroke-linejoin="round"/>
<path d="M23.75 19C23.75 20.2598 23.2496 21.468 22.3588 22.3588C21.468 23.2496 20.2598 23.75 19 23.75C17.7402 23.75 16.532 23.2496 15.6412 22.3588C14.7504 21.468 14.25 20.2598 14.25 19C14.25 17.7402 14.7504 16.532 15.6412 15.6412C16.532 14.7504 17.7402 14.25 19 14.25C20.2598 14.25 21.468 14.7504 22.3588 15.6412C23.2496 16.532 23.75 17.7402 23.75 19Z" stroke="black" stroke-width="1.5" stroke-linecap="round" stroke-linejoin="round"/>
</svg>
